<?xml version="1.0" standalone="no"?>
<!DOCTYPE svg PUBLIC "-//W3C//DTD SVG 1.1//EN" "http://www.w3.org/Graphics/SVG/1.1/DTD/svg11.dtd" >
<svg xmlns="http://www.w3.org/2000/svg">
<metadata></metadata>
<defs>
<font id="rangerregular" horiz-adv-x="1177" >
<font-face units-per-em="2048" ascent="1536" descent="-512" />
<missing-glyph horiz-adv-x="899" />
<glyph horiz-adv-x="2048" />
<glyph horiz-adv-x="2048" />
<glyph unicode="&#xd;" horiz-adv-x="899" />
<glyph unicode=" "  horiz-adv-x="899" />
<glyph unicode="&#x09;" horiz-adv-x="899" />
<glyph unicode="&#xa0;" horiz-adv-x="899" />
<glyph unicode="A" horiz-adv-x="1200" d="M2 28v7l57 457q1 13 1 24q0 40 -17 59q-22 19 -35 19v16q66 11 80 105l59 483q18 133 106 212q88 78 213 89l23 2h297q73 0 130 -29q143 -71 143 -225q0 -24 -4 -51l-60 -483q-3 -16 -3 -29q0 -36 20 -55q10 -19 35 -19v-16q-70 -12 -80 -105l-58 -456q-3 -33 -35 -33 h-247q-17 0 -25 9t-6 26l49 395q5 14 -12 14h-248q-17 0 -20 -16l-50 -395q-3 -33 -34 -33h-248q-17 0 -25 9q-6 7 -6 19zM408 774q0 -14 14 -14h248q15 0 18 16l47 371q1 5 1 9q0 22 -25 30q-6 2 -11 2h-198q-42 -6 -47 -43z" />
<glyph unicode="B" horiz-adv-x="1183" d="M0 26q0 7 2 9l55 457q2 15 2 27q0 35 -16 56q-19 19 -37 19v16q70 12 80 105l94 753q7 33 35 33h571q74 0 129 -29.5t86 -62.5q56 -65 56 -161q0 -25 -4 -52l-60 -483q-10 -86 -67 -111q42 -28 42 -88q0 -9 -1 -18l-2 -4v-7l-23 -180q-20 -167 -148 -247 q-78 -50 -173 -58h-592q-29 0 -29 26zM351 324q0 -11 14 -11h223q2 0 22.5 6.5t24.5 36.5l6 52q2 16 -6 26t-23 10h-229q-15 0 -18 -16l-13 -98q-1 -3 -1 -6zM407 768q0 -8 13 -8h223q42 0 47 41l43 346q1 5 1 9q0 22 -25 30q-6 2 -11 2h-221q-17 0 -20 -19l-49 -395 q-1 -3 -1 -6z" />
<glyph unicode="C" d="M0 594v16q62 14 76 84l63 502q21 165 159 252q62 39 177 53h303q130 0 215 -90q57 -63 57 -167q0 -24 -3 -50l-17 -123q-4 -33 -35 -33h-247q-16 0 -23.5 9.5t-7.5 25.5l10 74q7 29 -25 39q-6 2 -10 2h-198q-2 0 -22.5 -6t-25.5 -37l-98 -791q0 -20 6 -27q12 -14 31 -14 h197q42 0 47 43l10 74q3 31 35 31h248q16 0 24 -9t6 -24l-14 -125q-14 -113 -68.5 -174t-115.5 -90q-81 -39 -158 -39h-317q-138 17 -201 98q-52 62 -52 156q0 24 3 51l24 193q1 11 1 20q0 38 -13 52q-23 24 -41 24z" />
<glyph unicode="D" horiz-adv-x="1202" d="M0 26q0 7 2 9l55 457q2 15 2 27q0 35 -16 56q-19 19 -37 19v16q70 12 80 105l94 753q7 33 35 33h571q74 0 129 -29.5t86 -62.5q56 -65 56 -161q0 -25 -4 -52l-111 -893q-26 -196 -183 -265q-71 -31 -133 -36l-24 -2h-573q-29 0 -29 26zM351 324q0 -11 14 -11h223 q2 0 22.5 6.5t24.5 36.5l98 791q1 5 1 9q0 22 -25 30q-6 2 -11 2h-221q-17 0 -20 -19l-105 -839q-1 -3 -1 -6z" />
<glyph unicode="E" horiz-adv-x="1191" d="M2 29v6l57 459q1 13 1 24q0 41 -17 60q-21 18 -35 18v16q66 11 80 105l94 753q2 18 14.5 25.5t20.5 7.5h842q17 0 23.5 -8t7.5 -27l-31 -247q-7 -31 -37 -31h-545q-2 0 -9 -3t-9 -16l-51 -395q0 -16 14 -16h248q14 0 22 -9t6 -24l-30 -248q-2 -18 -14.5 -25.5t-20.5 -7.5 h-248q-17 0 -20 -16l-13 -100q0 -15 15 -15h544q21 0 29 -19q2 -5 0 -15l-31 -248q-3 -31 -35 -31h-841q-17 0 -25 9q-6 7 -6 18z" />
<glyph unicode="F" horiz-adv-x="1126" d="M2 28v7l57 457q1 13 1 24q0 40 -17 59q-22 19 -35 19v16q66 11 80 105l94 753q2 18 14.5 25.5t20.5 7.5h842q17 0 23.5 -8t7.5 -27l-31 -245q-7 -33 -37 -33h-545q-2 0 -9 -3t-9 -16l-51 -395q0 -14 14 -14h248q13 0 21.5 -10t6.5 -25l-30 -248q-3 -25 -35 -33h-248 q-17 0 -20 -16l-50 -395q-3 -33 -34 -33h-248q-17 0 -25 9q-6 7 -6 19z" />
<glyph unicode="G" d="M0 594v16q64 13 78 90l6 48q16 137 26.5 215.5t15.5 124t10 80.5q11 79 11 83q27 145 152 221q74 44 164 52h2l14 2h309l15 -2q31 0 76 -16q175 -60 175 -242q0 -23 -3 -47l-17 -123q-3 -26 -35 -33h-247q-26 7 -31 24v11l10 73q4 30 -24 39q-6 2 -11 2h-198 q-2 0 -22.5 -6t-24.5 -37l-101 -815q-6 -29 25 -39q6 -2 10 -2h199q12 -2 20 4q20 8 27 37l10 90h-115q-30 7 -30 37l30 248q7 35 37 29l398 2q28 0 28 -27q2 -2 -1 -16.5t-8 -56.5t-11 -95q-13 -116 -30 -244t-36 -290q-7 -31 -37 -31h-587q-138 17 -201 96q-50 62 -50 158 q0 24 3 51l20 187q2 14 2 27q0 34 -16 56q-19 19 -37 19z" />
<glyph unicode="H" horiz-adv-x="1202" d="M2 27v6l57 459q1 12 1 23q0 40 -17 60q-22 19 -35 19v16q66 11 80 105l94 753q2 18 14.5 25.5t20.5 7.5h248q17 0 23.5 -8t7.5 -27l-88 -692q0 -16 14 -16h248q2 0 9 3t9 15l88 692q2 18 14.5 25.5t20.5 7.5h248q17 0 23.5 -8t7.5 -27l-95 -753q-3 -16 -3 -29 q0 -36 20 -55q10 -19 35 -19v-16q-70 -12 -80 -105l-58 -458q-3 -31 -35 -31h-247q-17 0 -25 9t-6 24l49 397q5 14 -12 14h-248q-17 0 -20 -16l-50 -397q-3 -31 -34 -31h-248q-17 0 -25 9q-6 7 -6 18z" />
<glyph unicode="I" horiz-adv-x="671" d="M27 35l59 465v9q0 44 -18 66q-22 19 -35 19v16q62 12 78 99l96 759q4 33 35 33h247q17 0 24 -8t7 -27l-94 -753q-3 -16 -3 -30q0 -36 19 -54q4 -8 12 -11q16 -8 23 -8v-16q-71 -13 -80 -105l-57 -456q-3 -33 -35 -33h-248q-17 0 -25 9q-5 6 -5 16v10z" />
<glyph unicode="J" d="M0 251q0 26 4 54l14 125q7 31 37 31h248q4 0 8 -2t7 -3q17 -5 14 -28l-8 -74q-6 -28 24 -39q6 -2 10 -2h197q44 6 49 43l17 138q1 12 1 22q0 40 -18 59q-14 19 -37 19v16q38 0 63 44q13 22 17 59l96 755q2 18 14.5 25.5t20.5 7.5h248q14 0 25 -10q6 -12 6 -25l-96 -761 q-1 -12 -1 -22q0 -57 41 -71q6 -2 13 -2v-16q-65 -11 -80 -100l-23 -191q-14 -113 -69.5 -174t-115.5 -90q-81 -39 -159 -39h-297q-68 0 -126 28q-144 68 -144 223z" />
<glyph unicode="K" horiz-adv-x="1101" d="M2 28v7l57 457q1 13 1 24q0 40 -17 59q-22 19 -35 19v16q66 11 80 105l94 753q2 18 14.5 25.5t20.5 7.5h248q17 0 23.5 -8t7.5 -27l-84 -667v-4q2 2 2 4t2 4l350 670q18 28 45 28h256q17 0 23 -10q2 -5 2 -10q0 -8 -5 -17l-362 -692q-14 -22 -14 -47.5t4 -36.5l194 -653 q5 -9 -2 -23q-10 -12 -33 -12h-247q-2 0 -12.5 4t-18.5 27l-117 395q-9 18 -26 18h-68q-17 0 -20 -16l-50 -395q-3 -33 -34 -33h-248q-17 0 -25 9q-6 7 -6 19z" />
<glyph unicode="L" horiz-adv-x="1089" d="M2 27v6l57 459q1 15 1 28q0 38 -13 50q-25 24 -39 24v16q66 11 80 105l94 753q2 18 14.5 25.5t20.5 7.5h248q17 0 23.5 -8t7.5 -27l-97 -766q-1 -7 -1 -14q0 -38 20 -57q10 -19 35 -19v-16q-64 -12 -78 -94l-19 -146q-6 -29 25 -39q6 -2 10 -2h520q15 0 23 -9q6 -7 6 -19 v-6l-31 -248q-3 -31 -35 -31h-841q-17 0 -25 9q-6 7 -6 18z" />
<glyph unicode="M" horiz-adv-x="1523" d="M2 28v7l55 457q1 13 1 24q0 41 -17 59q-14 19 -37 19v16q36 0 64 46q12 20 16 59l92 753q2 18 14.5 25.5t20.5 7.5h248q30 0 30 -33l209 -647l371 649q7 31 37 31h248q4 0 8 -2t7 -3q13 -4 13 -23v-7l-94 -753q-1 -13 -1 -24q0 -42 18 -60q14 -19 36 -19v-16 q-36 0 -63 -46q-12 -20 -18 -59l-56 -456q-7 -33 -37 -33h-247q-16 0 -23.5 9t-5.5 26l80 639l-199 -344q0 -2 -11 -17.5t-34 -15.5h-182q-18 0 -27.5 12t-11.5 21l-113 346l-78 -643q-3 -33 -34 -33h-248q-17 0 -25 9q-6 7 -6 19z" />
<glyph unicode="N" horiz-adv-x="1228" d="M2 28v7l59 477q1 7 1 13q0 51 -42 67q-8 2 -12 2v16q62 12 76 84l98 774q2 18 14.5 25.5t20.5 7.5h248q16 0 22.5 -13t8.5 -18l194 -679l86 677q2 18 14.5 25.5t20.5 7.5h248q17 0 23.5 -8t7.5 -27l-95 -753q-1 -12 -1 -22q0 -64 42 -79q6 -2 13 -2v-16q-37 0 -64 -46 q-12 -20 -16 -59h-2l-58 -456q-3 -33 -35 -33h-247q-16 0 -22.5 13.5t-8.5 17.5l-197 680l-84 -678q-3 -33 -34 -33h-248q-17 0 -25 9q-6 7 -6 19z" />
<glyph unicode="O" horiz-adv-x="1202" d="M0 596v16q70 12 80 105l61 483q14 113 68.5 174.5t114.5 89.5q82 39 159 39h297q71 0 128 -28.5t87 -61.5q56 -68 56 -171q0 -21 -2 -44l-62 -483q-2 -16 -2 -29q0 -37 13 -50q23 -24 42 -24v-16q-36 0 -63 -46q-12 -20 -16 -58l-25 -187q-14 -113 -68.5 -174t-115.5 -90 q-81 -39 -158 -39h-297q-69 0 -126.5 27.5t-88.5 62.5q-56 63 -56 165q0 25 3 52l22 185q2 15 2 27q0 35 -16 57q-18 18 -37 18zM348 349q0 -23 25 -32q6 -2 10 -2h199q42 0 47 43l100 791q0 31 -27 39q-6 2 -10 2h-196q-2 0 -22.5 -6t-24.5 -37l-101 -791v-7z" />
<glyph unicode="P" horiz-adv-x="1126" d="M2 28v7l57 457q1 13 1 24q0 40 -17 59q-22 19 -35 19v16q66 11 80 105l94 753q2 18 14.5 25.5t20.5 7.5h569q76 0 131 -29.5t84 -62.5q58 -66 58 -163q0 -24 -4 -50l-56 -446q-18 -136 -103 -214q-84 -76 -215 -90l-24 -2h-272q-17 0 -20 -16l-50 -395q-3 -33 -34 -33 h-248q-17 0 -25 9q-6 7 -6 19zM408 774q0 -14 14 -14h223q27 4 36 14t11 27l43 346q1 5 1 9q0 22 -25 30q-6 2 -11 2h-223q-2 0 -9 -3t-9 -16z" />
<glyph unicode="Q" horiz-adv-x="1204" d="M0 594v16q70 12 80 105l61 481q14 113 68.5 174.5t114.5 89.5q86 41 159 41h297q71 0 128 -28.5t87 -61.5q57 -67 57 -169q0 -23 -3 -48l-62 -481q-1 -12 -1 -22q0 -64 42 -79q6 -2 12 -2v-16q-36 0 -63 -46q-12 -20 -16 -59l-19 -137q0 -34 24 -38q11 -1 13 -1h84 q12 0 21 -9t8 -25l-31 -248q-7 -31 -37 -31h-727q-72 0 -128 28q-143 70 -143 229q0 23 3 48l22 187q2 17 2 30q0 48 -29 62q-8 4 -14 6t-10 4zM348 347q0 -23 25 -32q6 -2 10 -2h199q42 0 47 43l100 791q0 31 -27 39q-6 2 -10 2h-196q-2 0 -22.5 -6t-24.5 -37l-101 -791v-7 z" />
<glyph unicode="R" d="M0 26q0 7 2 9l55 457q2 15 2 27q0 35 -16 56q-19 19 -37 19v16q70 12 80 105l94 753q7 33 35 33h571q74 0 129 -29.5t86 -62.5q56 -65 56 -161q0 -25 -4 -52l-60 -483q-10 -86 -67 -111q42 -28 42 -88q0 -9 -1 -18l-3 -20q-9 -63 -15.5 -117t-12.5 -97l-29 -229 q-4 -33 -35 -33h-243q-16 0 -25 9q-15 14 -10 24l47 375q2 16 -6 26t-23 10h-229q-15 0 -18 -16l-52 -395q0 -10 -8 -21.5t-31 -11.5h-245q-29 0 -29 26zM407 768q0 -8 13 -8h223q42 0 47 41l43 346q1 5 1 9q0 22 -25 30q-6 2 -11 2h-221q-17 0 -20 -19l-49 -395 q-1 -3 -1 -6z" />
<glyph unicode="S" horiz-adv-x="1167" d="M2 27v6l31 248q7 32 37 32h493q66 6 76 68q1 6 1 12q0 40 -42 49q-8 2 -16 2h-220q-42 0 -92 16q-182 61 -182 237q0 26 4 55l58 444q14 131 103 213q86 79 213 90l23 2h570q17 0 24.5 -9t6.5 -26l-31 -247q-7 -31 -37 -31h-420q-76 0 -99 -16q-48 -31 -61 -128l-18 -149 q-2 -16 -2 -30q0 -95 84 -103q41 -4 84 -4h151q53 0 99 -24q127 -65 127 -224q0 -27 -4 -57l-19 -150q-14 -113 -68.5 -174t-115.5 -90q-81 -39 -158 -39h-569q-17 0 -25 9q-6 7 -6 18z" />
<glyph unicode="T" horiz-adv-x="1024" d="M0 1217v6l31 245q7 33 37 33h841q4 0 9 -2q4 -2 7 -3q13 -4 14 -23q0 -3 -1 -7l-31 -245q-3 -33 -35 -33h-247q-18 0 -21 -19l-57 -456q-1 -13 -1 -24q0 -42 17 -60q14 -19 37 -19v-16q-36 0 -64 -46q-12 -20 -16 -59l-57 -456q-7 -33 -37 -33h-248q-14 0 -22 9t-6 26 l57 457q2 14 2 26q0 34 -13 49q-24 27 -42 27v16q70 13 79 105l58 456q0 17 -15 17h-245q-17 0 -25 9q-6 7 -6 20z" />
<glyph unicode="U" horiz-adv-x="1241" d="M0 594v16q70 12 80 105l94 753q7 33 37 33h248q4 0 8 -2t7 -3q16 -5 13 -30l-139 -1112q-4 -29 25 -39q6 -2 10 -2h199q42 0 47 43l139 1112q7 33 37 33h248q4 0 8 -2t7 -3q13 -4 13 -23v-7l-94 -753q-1 -12 -1 -22q0 -64 42 -79q6 -2 12 -2v-16q-36 0 -63 -46 q-12 -20 -16 -59l-25 -186q-14 -113 -68.5 -174t-115.5 -90q-81 -39 -158 -39h-297q-72 0 -128 28q-143 70 -143 229q0 23 3 48l22 187q2 17 2 30q0 48 -29 62q-8 4 -14 6t-10 4z" />
<glyph unicode="V" horiz-adv-x="960" d="M0 594v16q64 13 78 95q-32 455 -62 763q7 33 37 33h248q33 0 29 -35l39 -749q12 41 35.5 111.5t49 151.5t53.5 166t50.5 155.5t36.5 116.5t19 60q8 23 32 23h258q18 0 23 -10q1 -2 1 -7q0 -17 -19 -70q-22 -66 -60.5 -183t-83.5 -252t-92 -277v-11q0 -38 12 -55 q19 -26 41 -26v-16v6v-6h-4q-73 0 -111 -78q-43 -135 -69.5 -211t-41 -120t-25.5 -77.5t-19.5 -55t-10.5 -27.5t-8 -11q-15 -14 -22 -14h-248q-24 0 -31 31q-4 16 -41 483q-7 48 -48 68q-23 12 -44 12h-2z" />
<glyph unicode="W" horiz-adv-x="1552" d="M0 594v16q64 13 78 95q-24 286 -62 763q7 33 37 33h248q4 0 8 -2t7 -3q17 -6 14 -30l39 -749q22 74 66 209t70.5 220t49.5 155.5t38 116.5t20 60q8 23 32 23h258q9 0 21 -10q4 -4 4 -16v-9l37 -749q12 41 35.5 111.5t49 151.5t53 166t50.5 155.5t38 116.5t20 60 q8 23 32 23h256h3q15 0 20 -11q1 -2 2 -7q0 -17 -20 -69q-24 -64 -61.5 -182t-82.5 -253t-92 -277q-1 -10 -1 -18q0 -34 13 -49q22 -25 41 -25v-16v6v-6h-2q-75 0 -113 -78l-8 -29v2l-154 -460q-14 -29 -34 -29h-248q-6 0 -16.5 7t-13.5 18.5t-12 132.5t-30 356l-16 199 l-68 -209q-69 -205 -98 -293q-58 -177 -62 -184.5t-10 -12.5q-15 -14 -22 -14h-248q-24 0 -31 31q0 2 -2 18.5t-6 67.5t-12.5 145t-20.5 252q-7 48 -48 68q-23 12 -46 12zM0 602v2v-2z" />
<glyph unicode="X" horiz-adv-x="1216" d="M-1 23q0 6 5 14l385 715l-207 714q-4 12 4 22q11 13 39 13h232q28 0 39 -31l98 -340l182 343q18 28 43 28h234q29 0 37 -14q2 -4 2 -8q0 -7 -5 -15l-385 -714l207 -715q5 -12 -2 -25q-7 -10 -28 -10h-248q-25 0 -35 31l-96 340l-185 -342q-15 -29 -45 -29h-233 q-27 0 -35 14q-3 4 -3 9z" />
<glyph unicode="Y" horiz-adv-x="897" d="M1 1471q0 7 5 16q11 14 39 14h234q29 0 36 -31l64 -620l219 620q13 31 43 31h233q29 0 35 -14q4 -4 4 -9.5t-4 -13.5l-424 -1013l-51 -420q-8 -31 -39 -31h-243q-35 0 -31 33q0 5 4 39l47 381l-170 1013q-1 2 -1 5z" />
<glyph unicode="Z" horiz-adv-x="1183" d="M2 30v5l33 254q2 25 11 41t13 24l615 817q4 6 4 13q-4 4 -12 4h-486q-15 0 -22.5 9t-5.5 26l30 245q3 33 35 33h844q14 0 22 -8q6 -10 7 -27l-37 -288q-5 -46 -27 -68l-608 -780q-4 -6 -4 -13q4 -4 12 -4h485q15 0 23 -9t6 -25l-31 -246q-3 -33 -35 -33h-843 q-15 0 -23 11q-6 9 -6 19z" />
<glyph unicode="a" horiz-adv-x="1200" d="M2 28v7l57 457q1 13 1 24q0 40 -17 59q-22 19 -35 19v16q66 11 80 105l59 483q18 133 106 212q88 78 213 89l23 2h297q73 0 130 -29q143 -71 143 -225q0 -24 -4 -51l-60 -483q-3 -16 -3 -29q0 -36 20 -55q10 -19 35 -19v-16q-70 -12 -80 -105l-58 -456q-3 -33 -35 -33 h-247q-17 0 -25 9t-6 26l49 395q5 14 -12 14h-248q-17 0 -20 -16l-50 -395q-3 -33 -34 -33h-248q-17 0 -25 9q-6 7 -6 19zM408 774q0 -14 14 -14h248q15 0 18 16l47 371q1 5 1 9q0 22 -25 30q-6 2 -11 2h-198q-42 -6 -47 -43z" />
<glyph unicode="b" horiz-adv-x="1183" d="M0 26q0 7 2 9l55 457q2 15 2 27q0 35 -16 56q-19 19 -37 19v16q70 12 80 105l94 753q7 33 35 33h571q74 0 129 -29.5t86 -62.5q56 -65 56 -161q0 -25 -4 -52l-60 -483q-10 -86 -67 -111q42 -28 42 -88q0 -9 -1 -18l-2 -4v-7l-23 -180q-20 -167 -148 -247 q-78 -50 -173 -58h-592q-29 0 -29 26zM351 324q0 -11 14 -11h223q2 0 22.5 6.5t24.5 36.5l6 52q2 16 -6 26t-23 10h-229q-15 0 -18 -16l-13 -98q-1 -3 -1 -6zM407 768q0 -8 13 -8h223q42 0 47 41l43 346q1 5 1 9q0 22 -25 30q-6 2 -11 2h-221q-17 0 -20 -19l-49 -395 q-1 -3 -1 -6z" />
<glyph unicode="c" d="M0 594v16q62 14 76 84l63 502q21 165 159 252q62 39 177 53h303q130 0 215 -90q57 -63 57 -167q0 -24 -3 -50l-17 -123q-4 -33 -35 -33h-247q-16 0 -23.5 9.5t-7.5 25.5l10 74q7 29 -25 39q-6 2 -10 2h-198q-2 0 -22.5 -6t-25.5 -37l-98 -791q0 -20 6 -27q12 -14 31 -14 h197q42 0 47 43l10 74q3 31 35 31h248q16 0 24 -9t6 -24l-14 -125q-14 -113 -68.5 -174t-115.5 -90q-81 -39 -158 -39h-317q-138 17 -201 98q-52 62 -52 156q0 24 3 51l24 193q1 11 1 20q0 38 -13 52q-23 24 -41 24z" />
<glyph unicode="d" horiz-adv-x="1202" d="M0 26q0 7 2 9l55 457q2 15 2 27q0 35 -16 56q-19 19 -37 19v16q70 12 80 105l94 753q7 33 35 33h571q74 0 129 -29.5t86 -62.5q56 -65 56 -161q0 -25 -4 -52l-111 -893q-26 -196 -183 -265q-71 -31 -133 -36l-24 -2h-573q-29 0 -29 26zM351 324q0 -11 14 -11h223 q2 0 22.5 6.5t24.5 36.5l98 791q1 5 1 9q0 22 -25 30q-6 2 -11 2h-221q-17 0 -20 -19l-105 -839q-1 -3 -1 -6z" />
<glyph unicode="e" horiz-adv-x="1191" d="M2 29v6l57 459q1 13 1 24q0 41 -17 60q-21 18 -35 18v16q66 11 80 105l94 753q2 18 14.5 25.5t20.5 7.5h842q17 0 23.5 -8t7.5 -27l-31 -247q-7 -31 -37 -31h-545q-2 0 -9 -3t-9 -16l-51 -395q0 -16 14 -16h248q14 0 22 -9t6 -24l-30 -248q-2 -18 -14.5 -25.5t-20.5 -7.5 h-248q-17 0 -20 -16l-13 -100q0 -15 15 -15h544q21 0 29 -19q2 -5 0 -15l-31 -248q-3 -31 -35 -31h-841q-17 0 -25 9q-6 7 -6 18z" />
<glyph unicode="f" horiz-adv-x="1126" d="M2 28v7l57 457q1 13 1 24q0 40 -17 59q-22 19 -35 19v16q66 11 80 105l94 753q2 18 14.5 25.5t20.5 7.5h842q17 0 23.5 -8t7.5 -27l-31 -245q-7 -33 -37 -33h-545q-2 0 -9 -3t-9 -16l-51 -395q0 -14 14 -14h248q13 0 21.5 -10t6.5 -25l-30 -248q-3 -25 -35 -33h-248 q-17 0 -20 -16l-50 -395q-3 -33 -34 -33h-248q-18 0 -25 9q-6 7 -6 19z" />
<glyph unicode="g" d="M0 594v16q64 13 78 90l6 48q16 137 26.5 215.5t15.5 124t10 80.5q11 79 11 83q27 145 152 221q74 44 164 52h2l14 2h309l15 -2q31 0 76 -16q175 -60 175 -242q0 -23 -3 -47l-17 -123q-3 -26 -35 -33h-247q-26 7 -31 24v11l10 73q4 30 -24 39q-6 2 -11 2h-198 q-2 0 -22.5 -6t-24.5 -37l-101 -815q-6 -29 25 -39q6 -2 10 -2h199q12 -2 20 4q20 8 27 37l10 90h-115q-30 7 -30 37l30 248q7 35 37 29l398 2q28 0 28 -27q2 -2 -1 -16.5t-8 -56.5t-11 -95q-13 -116 -30 -244t-36 -290q-7 -31 -37 -31h-587q-138 17 -201 96q-50 62 -50 158 q0 24 3 51l20 187q2 14 2 27q0 34 -16 56q-19 19 -37 19z" />
<glyph unicode="h" horiz-adv-x="1202" d="M2 27v6l57 459q1 12 1 23q0 40 -17 60q-22 19 -35 19v16q66 11 80 105l94 753q2 18 14.5 25.5t20.5 7.5h248q17 0 23.5 -8t7.5 -27l-88 -692q0 -16 14 -16h248q2 0 9 3t9 15l88 692q2 18 14.5 25.5t20.5 7.5h248q17 0 23.5 -8t7.5 -27l-95 -753q-3 -16 -3 -29 q0 -36 20 -55q10 -19 35 -19v-16q-70 -12 -80 -105l-58 -458q-3 -31 -35 -31h-247q-17 0 -25 9t-6 24l49 397q5 14 -12 14h-248q-17 0 -20 -16l-50 -397q-3 -31 -34 -31h-248q-17 0 -25 9q-6 7 -6 18z" />
<glyph unicode="i" horiz-adv-x="671" d="M27 35l59 465v9q0 44 -18 66q-22 19 -35 19v16q62 12 78 99l96 759q4 33 35 33h247q17 0 24 -8t7 -27l-94 -753q-3 -16 -3 -30q0 -36 19 -54q4 -8 12 -11q16 -8 23 -8v-16q-71 -13 -80 -105l-57 -456q-3 -33 -35 -33h-248q-17 0 -25 9q-5 6 -5 16v10z" />
<glyph unicode="j" d="M0 251q0 26 4 54l14 125q7 31 37 31h248q4 0 8 -2t7 -3q17 -5 14 -28l-8 -74q-6 -28 24 -39q6 -2 10 -2h197q44 6 49 43l17 138q1 12 1 22q0 40 -18 59q-14 19 -37 19v16q38 0 63 44q13 22 17 59l96 755q2 18 14.5 25.5t20.5 7.5h248q14 0 25 -10q6 -12 6 -25l-96 -761 q-1 -12 -1 -22q0 -57 41 -71q6 -2 13 -2v-16q-65 -11 -80 -100l-23 -191q-14 -113 -69.5 -174t-115.5 -90q-81 -39 -159 -39h-297q-68 0 -126 28q-144 68 -144 223z" />
<glyph unicode="k" horiz-adv-x="1101" d="M2 28v7l57 457q1 13 1 24q0 40 -17 59q-22 19 -35 19v16q66 11 80 105l94 753q2 18 14.5 25.5t20.5 7.5h248q17 0 23.5 -8t7.5 -27l-84 -667v-4q2 2 2 4t2 4l350 670q18 28 45 28h256q17 0 23 -10q2 -5 2 -10q0 -8 -5 -17l-362 -692q-14 -22 -14 -47.5t4 -36.5l194 -653 q5 -9 -2 -23q-10 -12 -33 -12h-247q-2 0 -12.5 4t-18.5 27l-117 395q-9 18 -26 18h-68q-17 0 -20 -16l-50 -395q-3 -33 -34 -33h-248q-17 0 -25 9q-6 7 -6 19z" />
<glyph unicode="l" horiz-adv-x="1089" d="M2 27v6l57 459q1 15 1 28q0 38 -13 50q-25 24 -39 24v16q66 11 80 105l94 753q2 18 14.5 25.5t20.5 7.5h248q17 0 23.5 -8t7.5 -27l-97 -766q-1 -7 -1 -14q0 -38 20 -57q10 -19 35 -19v-16q-64 -12 -78 -94l-19 -146q-6 -29 25 -39q6 -2 10 -2h520q15 0 23 -9q6 -7 6 -19 v-6l-31 -248q-3 -31 -35 -31h-841q-17 0 -25 9q-6 7 -6 18z" />
<glyph unicode="m" horiz-adv-x="1523" d="M2 28v7l55 457q1 13 1 24q0 41 -17 59q-14 19 -37 19v16q36 0 64 46q12 20 16 59l92 753q2 18 14.5 25.5t20.5 7.5h248q30 0 30 -33l209 -647l371 649q7 31 37 31h248q4 0 8 -2t7 -3q13 -4 13 -23v-7l-94 -753q-1 -13 -1 -24q0 -42 18 -60q14 -19 36 -19v-16 q-36 0 -63 -46q-12 -20 -18 -59l-56 -456q-7 -33 -37 -33h-247q-16 0 -23.5 9t-5.5 26l80 639l-199 -344q0 -2 -11 -17.5t-34 -15.5h-182q-18 0 -27.5 12t-11.5 21l-113 346l-78 -643q-3 -33 -34 -33h-248q-17 0 -25 9q-6 7 -6 19z" />
<glyph unicode="n" horiz-adv-x="1228" d="M2 28v7l59 477q1 7 1 13q0 51 -42 67q-8 2 -12 2v16q62 12 76 84l98 774q2 18 14.5 25.5t20.5 7.5h248q16 0 22.5 -13t8.5 -18l194 -679l86 677q2 18 14.5 25.5t20.5 7.5h248q17 0 23.5 -8t7.5 -27l-95 -753q-1 -12 -1 -22q0 -64 42 -79q6 -2 13 -2v-16q-37 0 -64 -46 q-12 -20 -16 -59h-2l-58 -456q-3 -33 -35 -33h-247q-16 0 -22.5 13.5t-8.5 17.5l-197 680l-84 -678q-3 -33 -34 -33h-248q-17 0 -25 9q-6 7 -6 19z" />
<glyph unicode="o" horiz-adv-x="1202" d="M0 596v16q70 12 80 105l61 483q14 113 68.5 174.5t114.5 89.5q82 39 159 39h297q71 0 128 -28.5t87 -61.5q56 -68 56 -171q0 -21 -2 -44l-62 -483q-2 -16 -2 -29q0 -37 13 -50q23 -24 42 -24v-16q-36 0 -63 -46q-12 -20 -16 -58l-25 -187q-14 -113 -68.5 -174t-115.5 -90 q-81 -39 -158 -39h-297q-69 0 -126.5 27.5t-88.5 62.5q-56 63 -56 165q0 25 3 52l22 185q2 15 2 27q0 35 -16 57q-18 18 -37 18zM348 349q0 -23 25 -32q6 -2 10 -2h199q42 0 47 43l100 791q0 31 -27 39q-6 2 -10 2h-196q-2 0 -22.5 -6t-24.5 -37l-101 -791v-7z" />
<glyph unicode="p" horiz-adv-x="1126" d="M2 28v7l57 457q1 13 1 24q0 40 -17 59q-22 19 -35 19v16q66 11 80 105l94 753q2 18 14.5 25.5t20.5 7.5h569q76 0 131 -29.5t84 -62.5q58 -66 58 -163q0 -24 -4 -50l-56 -446q-18 -136 -103 -214q-84 -76 -215 -90l-24 -2h-272q-17 0 -20 -16l-50 -395q-3 -33 -34 -33 h-248q-18 0 -25 9q-6 7 -6 19zM408 774q0 -14 14 -14h223q27 4 36 14t11 27l43 346q1 5 1 9q0 22 -25 30q-6 2 -11 2h-223q-2 0 -9 -3t-9 -16z" />
<glyph unicode="q" horiz-adv-x="1204" d="M0 594v16q70 12 80 105l61 481q14 113 68.5 174.5t114.5 89.5q86 41 159 41h297q71 0 128 -28.5t87 -61.5q57 -67 57 -169q0 -23 -3 -48l-62 -481q-1 -12 -1 -22q0 -64 42 -79q6 -2 12 -2v-16q-36 0 -63 -46q-12 -20 -16 -59l-19 -137q0 -34 24 -38q11 -1 13 -1h84 q12 0 21 -9t8 -25l-31 -248q-7 -31 -37 -31h-727q-72 0 -128 28q-143 70 -143 229q0 23 3 48l22 187q2 17 2 30q0 48 -29 62q-8 4 -14 6t-10 4zM348 347q0 -23 25 -32q6 -2 10 -2h199q42 0 47 43l100 791q0 31 -27 39q-6 2 -10 2h-196q-2 0 -22.5 -6t-24.5 -37l-101 -791v-7 z" />
<glyph unicode="r" d="M0 26q0 7 2 9l55 457q2 15 2 27q0 35 -16 56q-19 19 -37 19v16q70 12 80 105l94 753q7 33 35 33h571q74 0 129 -29.5t86 -62.5q56 -65 56 -161q0 -25 -4 -52l-60 -483q-10 -86 -67 -111q42 -28 42 -88q0 -9 -1 -18l-3 -20q-9 -63 -15.5 -117t-12.5 -97l-29 -229 q-4 -33 -35 -33h-243q-16 0 -25 9q-15 14 -10 24l47 375q2 16 -6 26t-23 10h-229q-15 0 -18 -16l-52 -395q0 -10 -8 -21.5t-31 -11.5h-245q-29 0 -29 26zM407 768q0 -8 13 -8h223q42 0 47 41l43 346q1 5 1 9q0 22 -25 30q-6 2 -11 2h-221q-17 0 -20 -19l-49 -395 q-1 -3 -1 -6z" />
<glyph unicode="s" horiz-adv-x="1167" d="M2 27v6l31 248q7 32 37 32h493q66 6 76 68q1 6 1 12q0 40 -42 49q-8 2 -16 2h-220q-42 0 -92 16q-182 61 -182 237q0 26 4 55l58 444q14 131 103 213q86 79 213 90l23 2h570q17 0 24.5 -9t6.5 -26l-31 -247q-7 -31 -37 -31h-420q-76 0 -99 -16q-48 -31 -61 -128l-18 -149 q-2 -16 -2 -30q0 -95 84 -103q41 -4 84 -4h151q53 0 99 -24q127 -65 127 -224q0 -27 -4 -57l-19 -150q-14 -113 -68.5 -174t-115.5 -90q-81 -39 -158 -39h-569q-17 0 -25 9q-6 7 -6 18z" />
<glyph unicode="t" horiz-adv-x="1024" d="M0 1217v6l31 245q7 33 37 33h841q4 0 9 -2q4 -2 7 -3q13 -4 14 -23q0 -3 -1 -7l-31 -245q-3 -33 -35 -33h-247q-18 0 -21 -19l-57 -456q-1 -13 -1 -24q0 -42 17 -60q14 -19 37 -19v-16q-36 0 -64 -46q-12 -20 -16 -59l-57 -456q-7 -33 -37 -33h-248q-14 0 -22 9t-6 26 l57 457q2 14 2 26q0 34 -13 49q-24 27 -42 27v16q70 13 79 105l58 456q0 17 -15 17h-245q-17 0 -25 9q-6 7 -6 20z" />
<glyph unicode="u" horiz-adv-x="1241" d="M0 594v16q70 12 80 105l94 753q7 33 37 33h248q4 0 8 -2t7 -3q16 -5 13 -30l-139 -1112q-4 -29 25 -39q6 -2 10 -2h199q42 0 47 43l139 1112q7 33 37 33h248q4 0 8 -2t7 -3q13 -4 13 -23v-7l-94 -753q-1 -12 -1 -22q0 -64 42 -79q6 -2 12 -2v-16q-36 0 -63 -46 q-12 -20 -16 -59l-25 -186q-14 -113 -68.5 -174t-115.5 -90q-81 -39 -158 -39h-297q-72 0 -128 28q-143 70 -143 229q0 23 3 48l22 187q2 17 2 30q0 48 -29 62q-8 4 -14 6t-10 4z" />
<glyph unicode="v" horiz-adv-x="960" d="M0 594v16q64 13 78 95q-32 455 -62 763q7 33 37 33h248q33 0 29 -35l39 -749q12 41 35.5 111.5t49 151.5t53.5 166t50.5 155.5t36.5 116.5t19 60q8 23 32 23h258q18 0 23 -10q1 -2 1 -7q0 -17 -19 -70q-22 -66 -60.5 -183t-83.5 -252t-92 -277v-11q0 -38 12 -55 q19 -26 41 -26v-16v6v-6h-4q-73 0 -111 -78q-43 -135 -69.5 -211t-41 -120t-25.5 -77.5t-19.5 -55t-10.5 -27.5t-8 -11q-15 -14 -22 -14h-248q-24 0 -31 31q-4 16 -41 483q-7 48 -48 68q-23 12 -44 12h-2z" />
<glyph unicode="w" horiz-adv-x="1552" d="M0 594v16q64 13 78 95q-24 286 -62 763q7 33 37 33h248q4 0 8 -2t7 -3q17 -6 14 -30l39 -749q22 74 66 209t70.5 220t49.5 155.5t38 116.5t20 60q8 23 32 23h258q9 0 21 -10q4 -4 4 -16v-9l37 -749q12 41 35.5 111.5t49 151.5t53 166t50.5 155.5t38 116.5t20 60 q8 23 32 23h256h3q15 0 20 -11q1 -2 2 -7q0 -17 -20 -69q-24 -64 -61.5 -182t-82.5 -253t-92 -277q-1 -10 -1 -18q0 -34 13 -49q22 -25 41 -25v-16v6v-6h-2q-75 0 -113 -78l-8 -29v2l-154 -460q-14 -29 -34 -29h-248q-6 0 -16.5 7t-13.5 18.5t-12 132.5t-30 356l-16 199 l-68 -209q-69 -205 -98 -293q-58 -177 -62 -184.5t-10 -12.5q-15 -14 -22 -14h-248q-24 0 -31 31q0 2 -2 18.5t-6 67.5t-12.5 145t-20.5 252q-7 48 -48 68q-23 12 -46 12zM0 602v2v-2z" />
<glyph unicode="x" horiz-adv-x="1216" d="M-1 23q0 6 5 14l385 715l-207 714q-4 12 4 22q11 13 39 13h232q28 0 39 -31l98 -340l182 343q18 28 43 28h234q29 0 37 -14q2 -4 2 -8q0 -7 -5 -15l-385 -714l207 -715q5 -12 -2 -25q-7 -10 -28 -10h-248q-25 0 -35 31l-96 340l-185 -342q-15 -29 -45 -29h-233 q-27 0 -35 14q-3 4 -3 9z" />
<glyph unicode="y" horiz-adv-x="897" d="M1 1471q0 7 5 16q11 14 39 14h234q29 0 36 -31l64 -620l219 620q13 31 43 31h233q29 0 35 -14q4 -4 4 -9.5t-4 -13.5l-424 -1013l-51 -420q-8 -31 -39 -31h-243q-35 0 -31 33q0 5 4 39l47 381l-170 1013q-1 2 -1 5z" />
<glyph unicode="z" horiz-adv-x="1183" d="M2 30v5l33 254q2 25 11 41t13 24l615 817q4 6 4 13q-4 4 -12 4h-486q-15 0 -22.5 9t-5.5 26l30 245q3 33 35 33h844q14 0 22 -8q6 -10 7 -27l-37 -288q-5 -46 -27 -68l-608 -780q-4 -6 -4 -13q4 -4 12 -4h485q15 0 23 -9t6 -25l-31 -246q-3 -33 -35 -33h-843 q-15 0 -23 11q-6 9 -6 19z" />
<glyph unicode="&#x2000;" horiz-adv-x="763" />
<glyph unicode="&#x2001;" horiz-adv-x="1526" />
<glyph unicode="&#x2002;" horiz-adv-x="763" />
<glyph unicode="&#x2003;" horiz-adv-x="1526" />
<glyph unicode="&#x2004;" horiz-adv-x="508" />
<glyph unicode="&#x2005;" horiz-adv-x="381" />
<glyph unicode="&#x2006;" horiz-adv-x="254" />
<glyph unicode="&#x2007;" horiz-adv-x="254" />
<glyph unicode="&#x2008;" horiz-adv-x="190" />
<glyph unicode="&#x2009;" horiz-adv-x="305" />
<glyph unicode="&#x200a;" horiz-adv-x="84" />
<glyph unicode="&#x202f;" horiz-adv-x="305" />
<glyph unicode="&#x205f;" horiz-adv-x="381" />
<glyph unicode="&#x25fc;" horiz-adv-x="1500" d="M0 0v1500h1500v-1500h-1500z" />
</font>
</defs>
</svg>
